<svg width="24" height="24" viewBox="0 0 24 24" fill="none" xmlns="http://www.w3.org/2000/svg">
<g id="layer1">
<g id="g4550">
<path id="path4508" d="M13.5405 3.69189V7.38438L19.9356 11.0769V7.38438L13.5405 3.69189ZM0.75 7.38438V11.0769L3.94753 12.9227V9.23062L0.75 7.38438ZM10.3426 9.23062L7.14506 11.0769V22.1535L10.3426 23.9998V16.6152L13.5405 18.4614V14.769L10.3426 12.9227V9.23062Z" fill="#E55B2D"/>
<path id="path4491" d="M13.5405 3.69189L3.94751 9.23062V12.9227L10.3426 9.23062V12.9227L13.5405 11.0769V3.69189ZM23.1335 5.53814L19.9355 7.38438V11.0769L23.1335 9.23062V5.53814ZM16.738 12.9227L13.5405 14.769V18.4614L16.738 16.6152V12.9227ZM13.5405 18.4614L10.3426 16.6152V23.9998L13.5405 22.1535V18.4614Z" fill="#ED8E24"/>
<path id="path4506" d="M13.5405 0L0.75 7.38459L3.94753 9.23083L13.5405 3.6921L19.9356 7.38459L23.1335 5.53834L13.5405 0ZM13.5405 11.0771L10.3426 12.9229L13.5405 14.7692L16.738 12.9229L13.5405 11.0771Z" fill="#F8BF3C"/>
</g>
</g>
</svg>
